<svg xmlns="http://www.w3.org/2000/svg" viewBox="0 0 16 16"><path d="M5.63606 11.26H13.7263C13.8603 11.26 13.9781 11.2103 14.0798 11.1109C14.1814 11.0116 14.2323 10.888 14.2323 10.7401C14.2323 10.5922 14.1814 10.4685 14.0798 10.3692C13.9781 10.2698 13.8603 10.2201 13.7263 10.2201H5.75391C5.55981 10.2201 5.40152 10.1566 5.27905 10.0295C5.15657 9.9024 5.08146 9.73255 5.05373 9.51996L3.91682 1.80417C3.87985 1.53612 3.79781 1.33508 3.67071 1.20105C3.54363 1.06702 3.30215 1 2.94628 1H0.512996C0.374352 1 0.254193 1.052 0.152519 1.15599C0.0508397 1.25997 0 1.38129 0 1.51994C0 1.66321 0.0508397 1.78684 0.152519 1.89083C0.254193 1.99481 0.374352 2.0468 0.512996 2.0468H2.85616L3.96534 9.65861C4.03929 10.1531 4.21029 10.5436 4.47834 10.8302C4.7464 11.1167 5.1323 11.26 5.63606 11.26ZM4.36049 8.79206H13.74C14.2484 8.79206 14.6366 8.64763 14.9047 8.35878C15.1727 8.06992 15.3437 7.67593 15.4178 7.1768L15.9723 3.50954C15.9816 3.46332 15.9885 3.41595 15.993 3.36742C15.9977 3.3189 16 3.27847 16 3.24612C16 3.07973 15.9423 2.94455 15.8268 2.84056C15.7112 2.73658 15.5587 2.68459 15.3692 2.68459H3.75738L3.76431 3.73138H14.8215L14.3294 7.05201C14.3016 7.26461 14.23 7.4333 14.1144 7.55807C13.9988 7.68286 13.8394 7.74525 13.6361 7.74525L4.34663 7.75218L4.36049 8.79206ZM6.18372 14.6291C6.49337 14.6291 6.75796 14.5205 6.97748 14.3033C7.19701 14.0861 7.30678 13.8204 7.30678 13.5061C7.30678 13.1918 7.19701 12.9261 6.97748 12.7089C6.75796 12.4917 6.49337 12.383 6.18372 12.383C5.97112 12.383 5.78048 12.4327 5.6118 12.5321C5.44311 12.6315 5.30793 12.7666 5.20626 12.9376C5.10457 13.1086 5.05373 13.2981 5.05373 13.5061C5.05373 13.7141 5.10457 13.9036 5.20626 14.0746C5.30793 14.2456 5.44311 14.3807 5.6118 14.4801C5.78048 14.5795 5.97112 14.6291 6.18372 14.6291ZM12.6655 14.6291C12.9798 14.6291 13.2467 14.5205 13.4663 14.3033C13.6858 14.0861 13.7955 13.8204 13.7955 13.5061C13.7955 13.1918 13.6858 12.9261 13.4663 12.7089C13.2467 12.4917 12.9798 12.383 12.6655 12.383C12.4576 12.383 12.2681 12.4327 12.0971 12.5321C11.9261 12.6315 11.7897 12.7666 11.6881 12.9376C11.5864 13.1086 11.5355 13.2981 11.5355 13.5061C11.5355 13.8204 11.6465 14.0861 11.8683 14.3033C12.0901 14.5205 12.3559 14.6291 12.6655 14.6291Z"/></svg>